<mxfile host="Electron" modified="2023-11-13T09:59:26.434Z" agent="Mozilla/5.0 (X11; Linux x86_64) AppleWebKit/537.36 (KHTML, like Gecko) draw.io/22.0.3 Chrome/114.0.5735.289 Electron/25.8.4 Safari/537.36" etag="NbXKRjMSm-doV-c674JR" version="22.0.3" type="device">
  <diagram name="Page-1" id="FzvMSD5X-T3H1epoRITF">
    <mxGraphModel dx="3649" dy="2204" grid="1" gridSize="10" guides="1" tooltips="1" connect="1" arrows="1" fold="1" page="1" pageScale="1" pageWidth="3300" pageHeight="4681" math="0" shadow="0">
      <root>
        <mxCell id="0" />
        <mxCell id="1" parent="0" />
        <mxCell id="EDx30e67icJrGy1P892V-84" value="" style="rounded=0;whiteSpace=wrap;html=1;" vertex="1" parent="1">
          <mxGeometry x="1070" y="1294" width="640" height="720" as="geometry" />
        </mxCell>
        <mxCell id="EDx30e67icJrGy1P892V-57" value="" style="rounded=0;whiteSpace=wrap;html=1;" vertex="1" parent="1">
          <mxGeometry x="1000" y="330" width="410" height="900" as="geometry" />
        </mxCell>
        <mxCell id="EDx30e67icJrGy1P892V-40" value="" style="rounded=0;whiteSpace=wrap;html=1;" vertex="1" parent="1">
          <mxGeometry x="415" y="305" width="430" height="1710" as="geometry" />
        </mxCell>
        <mxCell id="EDx30e67icJrGy1P892V-27" style="edgeStyle=orthogonalEdgeStyle;rounded=0;orthogonalLoop=1;jettySize=auto;html=1;exitX=0.5;exitY=1;exitDx=0;exitDy=0;entryX=0.5;entryY=0;entryDx=0;entryDy=0;" edge="1" parent="1" source="EDx30e67icJrGy1P892V-1" target="EDx30e67icJrGy1P892V-2">
          <mxGeometry relative="1" as="geometry" />
        </mxCell>
        <mxCell id="EDx30e67icJrGy1P892V-1" value="获取参数parameters" style="rounded=0;whiteSpace=wrap;html=1;" vertex="1" parent="1">
          <mxGeometry x="510" y="440" width="120" height="60" as="geometry" />
        </mxCell>
        <mxCell id="EDx30e67icJrGy1P892V-28" style="edgeStyle=orthogonalEdgeStyle;rounded=0;orthogonalLoop=1;jettySize=auto;html=1;exitX=0.5;exitY=1;exitDx=0;exitDy=0;entryX=0.5;entryY=0;entryDx=0;entryDy=0;" edge="1" parent="1" source="EDx30e67icJrGy1P892V-2" target="EDx30e67icJrGy1P892V-3">
          <mxGeometry relative="1" as="geometry" />
        </mxCell>
        <mxCell id="EDx30e67icJrGy1P892V-2" value="设置gpu_device_ID" style="rounded=0;whiteSpace=wrap;html=1;" vertex="1" parent="1">
          <mxGeometry x="510" y="540" width="120" height="60" as="geometry" />
        </mxCell>
        <mxCell id="EDx30e67icJrGy1P892V-29" style="edgeStyle=orthogonalEdgeStyle;rounded=0;orthogonalLoop=1;jettySize=auto;html=1;exitX=0.5;exitY=1;exitDx=0;exitDy=0;entryX=0.5;entryY=0;entryDx=0;entryDy=0;" edge="1" parent="1" source="EDx30e67icJrGy1P892V-3" target="EDx30e67icJrGy1P892V-4">
          <mxGeometry relative="1" as="geometry" />
        </mxCell>
        <mxCell id="EDx30e67icJrGy1P892V-3" value="读取标签文件，readLabelFile" style="rounded=0;whiteSpace=wrap;html=1;" vertex="1" parent="1">
          <mxGeometry x="510" y="640" width="120" height="60" as="geometry" />
        </mxCell>
        <mxCell id="EDx30e67icJrGy1P892V-4" value="查看是否有engine_file" style="rounded=0;whiteSpace=wrap;html=1;" vertex="1" parent="1">
          <mxGeometry x="510" y="740" width="120" height="60" as="geometry" />
        </mxCell>
        <mxCell id="EDx30e67icJrGy1P892V-17" style="edgeStyle=orthogonalEdgeStyle;rounded=0;orthogonalLoop=1;jettySize=auto;html=1;exitX=0.5;exitY=1;exitDx=0;exitDy=0;" edge="1" parent="1" source="EDx30e67icJrGy1P892V-5" target="EDx30e67icJrGy1P892V-16">
          <mxGeometry relative="1" as="geometry" />
        </mxCell>
        <mxCell id="EDx30e67icJrGy1P892V-5" value="根据engine_file建立engine" style="rounded=0;whiteSpace=wrap;html=1;" vertex="1" parent="1">
          <mxGeometry x="510" y="1010" width="120" height="60" as="geometry" />
        </mxCell>
        <mxCell id="EDx30e67icJrGy1P892V-6" value="" style="endArrow=classic;html=1;rounded=0;exitX=0.5;exitY=1;exitDx=0;exitDy=0;" edge="1" parent="1" source="EDx30e67icJrGy1P892V-4">
          <mxGeometry width="50" height="50" relative="1" as="geometry">
            <mxPoint x="570" y="900" as="sourcePoint" />
            <mxPoint x="570" y="870" as="targetPoint" />
          </mxGeometry>
        </mxCell>
        <mxCell id="EDx30e67icJrGy1P892V-7" value="是/否" style="rhombus;whiteSpace=wrap;html=1;" vertex="1" parent="1">
          <mxGeometry x="530" y="870" width="80" height="80" as="geometry" />
        </mxCell>
        <mxCell id="EDx30e67icJrGy1P892V-8" value="" style="endArrow=classic;html=1;rounded=0;exitX=0.5;exitY=1;exitDx=0;exitDy=0;entryX=0.5;entryY=0;entryDx=0;entryDy=0;" edge="1" parent="1" source="EDx30e67icJrGy1P892V-7" target="EDx30e67icJrGy1P892V-5">
          <mxGeometry width="50" height="50" relative="1" as="geometry">
            <mxPoint x="670" y="1000" as="sourcePoint" />
            <mxPoint x="720" y="950" as="targetPoint" />
          </mxGeometry>
        </mxCell>
        <mxCell id="EDx30e67icJrGy1P892V-9" value="是" style="text;html=1;strokeColor=none;fillColor=none;align=center;verticalAlign=middle;whiteSpace=wrap;rounded=0;" vertex="1" parent="1">
          <mxGeometry x="510" y="960" width="60" height="30" as="geometry" />
        </mxCell>
        <mxCell id="EDx30e67icJrGy1P892V-10" value="否" style="text;html=1;strokeColor=none;fillColor=none;align=center;verticalAlign=middle;whiteSpace=wrap;rounded=0;" vertex="1" parent="1">
          <mxGeometry x="630" y="870" width="60" height="30" as="geometry" />
        </mxCell>
        <mxCell id="EDx30e67icJrGy1P892V-12" value="" style="endArrow=none;html=1;rounded=0;exitX=1;exitY=0.5;exitDx=0;exitDy=0;" edge="1" parent="1" source="EDx30e67icJrGy1P892V-7">
          <mxGeometry width="50" height="50" relative="1" as="geometry">
            <mxPoint x="660" y="950" as="sourcePoint" />
            <mxPoint x="770" y="910" as="targetPoint" />
          </mxGeometry>
        </mxCell>
        <mxCell id="EDx30e67icJrGy1P892V-26" style="edgeStyle=orthogonalEdgeStyle;rounded=0;orthogonalLoop=1;jettySize=auto;html=1;exitX=0.5;exitY=1;exitDx=0;exitDy=0;entryX=1;entryY=0.5;entryDx=0;entryDy=0;" edge="1" parent="1" source="EDx30e67icJrGy1P892V-13" target="EDx30e67icJrGy1P892V-20">
          <mxGeometry relative="1" as="geometry" />
        </mxCell>
        <mxCell id="EDx30e67icJrGy1P892V-13" value="根据onnx_file建立engine_file，并保存" style="rounded=0;whiteSpace=wrap;html=1;" vertex="1" parent="1">
          <mxGeometry x="710" y="1010" width="120" height="60" as="geometry" />
        </mxCell>
        <mxCell id="EDx30e67icJrGy1P892V-14" value="" style="endArrow=classic;html=1;rounded=0;entryX=0.5;entryY=0;entryDx=0;entryDy=0;" edge="1" parent="1" target="EDx30e67icJrGy1P892V-13">
          <mxGeometry width="50" height="50" relative="1" as="geometry">
            <mxPoint x="770" y="910" as="sourcePoint" />
            <mxPoint x="820" y="900" as="targetPoint" />
          </mxGeometry>
        </mxCell>
        <mxCell id="EDx30e67icJrGy1P892V-19" style="edgeStyle=orthogonalEdgeStyle;rounded=0;orthogonalLoop=1;jettySize=auto;html=1;exitX=0.5;exitY=1;exitDx=0;exitDy=0;entryX=0.5;entryY=0;entryDx=0;entryDy=0;" edge="1" parent="1" source="EDx30e67icJrGy1P892V-16" target="EDx30e67icJrGy1P892V-18">
          <mxGeometry relative="1" as="geometry" />
        </mxCell>
        <mxCell id="EDx30e67icJrGy1P892V-16" value="判断MaxBatchSize是否等于1" style="rounded=0;whiteSpace=wrap;html=1;" vertex="1" parent="1">
          <mxGeometry x="510" y="1130" width="120" height="60" as="geometry" />
        </mxCell>
        <mxCell id="EDx30e67icJrGy1P892V-21" style="edgeStyle=orthogonalEdgeStyle;rounded=0;orthogonalLoop=1;jettySize=auto;html=1;exitX=0.5;exitY=1;exitDx=0;exitDy=0;" edge="1" parent="1" source="EDx30e67icJrGy1P892V-18" target="EDx30e67icJrGy1P892V-20">
          <mxGeometry relative="1" as="geometry" />
        </mxCell>
        <mxCell id="EDx30e67icJrGy1P892V-24" style="edgeStyle=orthogonalEdgeStyle;rounded=0;orthogonalLoop=1;jettySize=auto;html=1;exitX=1;exitY=0.5;exitDx=0;exitDy=0;entryX=0;entryY=0.5;entryDx=0;entryDy=0;" edge="1" parent="1" source="EDx30e67icJrGy1P892V-18" target="EDx30e67icJrGy1P892V-13">
          <mxGeometry relative="1" as="geometry" />
        </mxCell>
        <mxCell id="EDx30e67icJrGy1P892V-18" value="是/否" style="rhombus;whiteSpace=wrap;html=1;" vertex="1" parent="1">
          <mxGeometry x="530" y="1240" width="80" height="80" as="geometry" />
        </mxCell>
        <mxCell id="EDx30e67icJrGy1P892V-35" style="edgeStyle=orthogonalEdgeStyle;rounded=0;orthogonalLoop=1;jettySize=auto;html=1;exitX=0.5;exitY=1;exitDx=0;exitDy=0;entryX=0.5;entryY=0;entryDx=0;entryDy=0;" edge="1" parent="1" source="EDx30e67icJrGy1P892V-20" target="EDx30e67icJrGy1P892V-30">
          <mxGeometry relative="1" as="geometry" />
        </mxCell>
        <mxCell id="EDx30e67icJrGy1P892V-20" value="打印信息：Inference Engine prepared" style="rounded=0;whiteSpace=wrap;html=1;" vertex="1" parent="1">
          <mxGeometry x="510" y="1360" width="120" height="60" as="geometry" />
        </mxCell>
        <mxCell id="EDx30e67icJrGy1P892V-22" value="是" style="text;html=1;strokeColor=none;fillColor=none;align=center;verticalAlign=middle;whiteSpace=wrap;rounded=0;" vertex="1" parent="1">
          <mxGeometry x="500" y="1310" width="60" height="30" as="geometry" />
        </mxCell>
        <mxCell id="EDx30e67icJrGy1P892V-25" value="否" style="text;html=1;strokeColor=none;fillColor=none;align=center;verticalAlign=middle;whiteSpace=wrap;rounded=0;" vertex="1" parent="1">
          <mxGeometry x="600" y="1240" width="60" height="30" as="geometry" />
        </mxCell>
        <mxCell id="EDx30e67icJrGy1P892V-36" style="edgeStyle=orthogonalEdgeStyle;rounded=0;orthogonalLoop=1;jettySize=auto;html=1;exitX=0.5;exitY=1;exitDx=0;exitDy=0;entryX=0.5;entryY=0;entryDx=0;entryDy=0;" edge="1" parent="1" source="EDx30e67icJrGy1P892V-30" target="EDx30e67icJrGy1P892V-31">
          <mxGeometry relative="1" as="geometry" />
        </mxCell>
        <mxCell id="EDx30e67icJrGy1P892V-30" value="建立Connect_Cb定时器" style="rounded=0;whiteSpace=wrap;html=1;" vertex="1" parent="1">
          <mxGeometry x="510" y="1480" width="120" height="60" as="geometry" />
        </mxCell>
        <mxCell id="EDx30e67icJrGy1P892V-37" style="edgeStyle=orthogonalEdgeStyle;rounded=0;orthogonalLoop=1;jettySize=auto;html=1;exitX=0.5;exitY=1;exitDx=0;exitDy=0;entryX=0.5;entryY=0;entryDx=0;entryDy=0;" edge="1" parent="1" source="EDx30e67icJrGy1P892V-31" target="EDx30e67icJrGy1P892V-32">
          <mxGeometry relative="1" as="geometry" />
        </mxCell>
        <mxCell id="EDx30e67icJrGy1P892V-31" value="建立互斥锁connect_mutex_" style="rounded=0;whiteSpace=wrap;html=1;" vertex="1" parent="1">
          <mxGeometry x="510" y="1580" width="120" height="60" as="geometry" />
        </mxCell>
        <mxCell id="EDx30e67icJrGy1P892V-38" style="edgeStyle=orthogonalEdgeStyle;rounded=0;orthogonalLoop=1;jettySize=auto;html=1;exitX=0.5;exitY=1;exitDx=0;exitDy=0;entryX=0.5;entryY=0;entryDx=0;entryDy=0;" edge="1" parent="1" source="EDx30e67icJrGy1P892V-32" target="EDx30e67icJrGy1P892V-33">
          <mxGeometry relative="1" as="geometry" />
        </mxCell>
        <mxCell id="EDx30e67icJrGy1P892V-32" value="创建检测目标的坐标publisher" style="rounded=0;whiteSpace=wrap;html=1;" vertex="1" parent="1">
          <mxGeometry x="510" y="1680" width="120" height="60" as="geometry" />
        </mxCell>
        <mxCell id="EDx30e67icJrGy1P892V-39" style="edgeStyle=orthogonalEdgeStyle;rounded=0;orthogonalLoop=1;jettySize=auto;html=1;exitX=0.5;exitY=1;exitDx=0;exitDy=0;entryX=0.5;entryY=0;entryDx=0;entryDy=0;" edge="1" parent="1" source="EDx30e67icJrGy1P892V-33" target="EDx30e67icJrGy1P892V-34">
          <mxGeometry relative="1" as="geometry" />
        </mxCell>
        <mxCell id="EDx30e67icJrGy1P892V-33" value="创建检测图像的publisher" style="rounded=0;whiteSpace=wrap;html=1;" vertex="1" parent="1">
          <mxGeometry x="510" y="1780" width="120" height="60" as="geometry" />
        </mxCell>
        <mxCell id="EDx30e67icJrGy1P892V-34" value="创建存储scores、boxes、class的float数组" style="rounded=0;whiteSpace=wrap;html=1;" vertex="1" parent="1">
          <mxGeometry x="510" y="1880" width="120" height="60" as="geometry" />
        </mxCell>
        <mxCell id="EDx30e67icJrGy1P892V-41" value="&lt;b&gt;&lt;font style=&quot;font-size: 24px;&quot;&gt;YoloComponent初始化函数&lt;/font&gt;&lt;/b&gt;" style="text;html=1;strokeColor=none;fillColor=none;align=center;verticalAlign=middle;whiteSpace=wrap;rounded=0;strokeWidth=1;fontSize=16;" vertex="1" parent="1">
          <mxGeometry x="530" y="340" width="140" height="60" as="geometry" />
        </mxCell>
        <mxCell id="EDx30e67icJrGy1P892V-43" value="&lt;h1&gt;readLabelFile函数&lt;/h1&gt;&lt;p style=&quot;font-size: 13px;&quot;&gt;&lt;font style=&quot;font-size: 13px;&quot;&gt;一、传入参数:&lt;/font&gt;&lt;/p&gt;&lt;font style=&quot;font-size: 13px;&quot;&gt;1、string filepath标签文件路径&lt;br style=&quot;border-color: var(--border-color); text-align: center;&quot;&gt;&lt;/font&gt;&lt;span style=&quot;text-align: center; font-size: 13px;&quot;&gt;&lt;font style=&quot;font-size: 13px;&quot;&gt;2、vector&amp;lt;string&amp;gt; *labels,标签数据&lt;br&gt;二、函数返回值：&lt;br&gt;bool&lt;br&gt;&lt;/font&gt;三、函数功能&lt;br&gt;用于读取标签文件&lt;br&gt;&lt;/span&gt;" style="text;html=1;strokeColor=none;fillColor=none;spacing=5;spacingTop=-20;whiteSpace=wrap;overflow=hidden;rounded=0;" vertex="1" parent="1">
          <mxGeometry x="1040" y="340" width="260" height="180" as="geometry" />
        </mxCell>
        <mxCell id="EDx30e67icJrGy1P892V-52" style="edgeStyle=orthogonalEdgeStyle;rounded=0;orthogonalLoop=1;jettySize=auto;html=1;exitX=0.5;exitY=1;exitDx=0;exitDy=0;entryX=0.5;entryY=0;entryDx=0;entryDy=0;" edge="1" parent="1" source="EDx30e67icJrGy1P892V-44" target="EDx30e67icJrGy1P892V-45">
          <mxGeometry relative="1" as="geometry" />
        </mxCell>
        <mxCell id="EDx30e67icJrGy1P892V-44" value="将filepath载入文件输入流labelsFile" style="rounded=0;whiteSpace=wrap;html=1;" vertex="1" parent="1">
          <mxGeometry x="1070" y="540" width="120" height="60" as="geometry" />
        </mxCell>
        <mxCell id="EDx30e67icJrGy1P892V-53" style="edgeStyle=orthogonalEdgeStyle;rounded=0;orthogonalLoop=1;jettySize=auto;html=1;exitX=0.5;exitY=1;exitDx=0;exitDy=0;entryX=0.5;entryY=0;entryDx=0;entryDy=0;" edge="1" parent="1" source="EDx30e67icJrGy1P892V-45" target="EDx30e67icJrGy1P892V-46">
          <mxGeometry relative="1" as="geometry" />
        </mxCell>
        <mxCell id="EDx30e67icJrGy1P892V-45" value="判断labelsFile是否打开" style="rounded=0;whiteSpace=wrap;html=1;" vertex="1" parent="1">
          <mxGeometry x="1070" y="660" width="120" height="60" as="geometry" />
        </mxCell>
        <mxCell id="EDx30e67icJrGy1P892V-48" style="edgeStyle=orthogonalEdgeStyle;rounded=0;orthogonalLoop=1;jettySize=auto;html=1;exitX=1;exitY=0.5;exitDx=0;exitDy=0;entryX=0;entryY=0.5;entryDx=0;entryDy=0;" edge="1" parent="1" source="EDx30e67icJrGy1P892V-46" target="EDx30e67icJrGy1P892V-47">
          <mxGeometry relative="1" as="geometry" />
        </mxCell>
        <mxCell id="EDx30e67icJrGy1P892V-54" style="edgeStyle=orthogonalEdgeStyle;rounded=0;orthogonalLoop=1;jettySize=auto;html=1;exitX=0.5;exitY=1;exitDx=0;exitDy=0;entryX=0.5;entryY=0;entryDx=0;entryDy=0;" edge="1" parent="1" source="EDx30e67icJrGy1P892V-46" target="EDx30e67icJrGy1P892V-49">
          <mxGeometry relative="1" as="geometry" />
        </mxCell>
        <mxCell id="EDx30e67icJrGy1P892V-46" value="是/否" style="rhombus;whiteSpace=wrap;html=1;" vertex="1" parent="1">
          <mxGeometry x="1090" y="770" width="80" height="80" as="geometry" />
        </mxCell>
        <mxCell id="EDx30e67icJrGy1P892V-47" value="打印报错信息，返回false" style="rounded=0;whiteSpace=wrap;html=1;" vertex="1" parent="1">
          <mxGeometry x="1280" y="780" width="120" height="60" as="geometry" />
        </mxCell>
        <mxCell id="EDx30e67icJrGy1P892V-55" style="edgeStyle=orthogonalEdgeStyle;rounded=0;orthogonalLoop=1;jettySize=auto;html=1;exitX=0.5;exitY=1;exitDx=0;exitDy=0;entryX=0.5;entryY=0;entryDx=0;entryDy=0;" edge="1" parent="1" source="EDx30e67icJrGy1P892V-49" target="EDx30e67icJrGy1P892V-50">
          <mxGeometry relative="1" as="geometry" />
        </mxCell>
        <mxCell id="EDx30e67icJrGy1P892V-49" value="将labelsFile逐行存入临时变量label" style="rounded=0;whiteSpace=wrap;html=1;" vertex="1" parent="1">
          <mxGeometry x="1070" y="900" width="120" height="60" as="geometry" />
        </mxCell>
        <mxCell id="EDx30e67icJrGy1P892V-56" style="edgeStyle=orthogonalEdgeStyle;rounded=0;orthogonalLoop=1;jettySize=auto;html=1;exitX=0.5;exitY=1;exitDx=0;exitDy=0;entryX=0.5;entryY=0;entryDx=0;entryDy=0;" edge="1" parent="1" source="EDx30e67icJrGy1P892V-50" target="EDx30e67icJrGy1P892V-51">
          <mxGeometry relative="1" as="geometry" />
        </mxCell>
        <mxCell id="EDx30e67icJrGy1P892V-50" value="将label的值push_back到labels中" style="rounded=0;whiteSpace=wrap;html=1;" vertex="1" parent="1">
          <mxGeometry x="1070" y="1010" width="120" height="60" as="geometry" />
        </mxCell>
        <mxCell id="EDx30e67icJrGy1P892V-51" value="返回true" style="rounded=0;whiteSpace=wrap;html=1;" vertex="1" parent="1">
          <mxGeometry x="1070" y="1120" width="120" height="60" as="geometry" />
        </mxCell>
        <mxCell id="EDx30e67icJrGy1P892V-62" value="" style="shape=flexArrow;endArrow=classic;html=1;rounded=0;entryX=-0.013;entryY=0.378;entryDx=0;entryDy=0;exitX=1;exitY=0.5;exitDx=0;exitDy=0;entryPerimeter=0;" edge="1" parent="1" source="EDx30e67icJrGy1P892V-3" target="EDx30e67icJrGy1P892V-57">
          <mxGeometry width="50" height="50" relative="1" as="geometry">
            <mxPoint x="640" y="670" as="sourcePoint" />
            <mxPoint x="690" y="620" as="targetPoint" />
          </mxGeometry>
        </mxCell>
        <mxCell id="EDx30e67icJrGy1P892V-65" value="&lt;h1&gt;connetctCb函数&lt;/h1&gt;&lt;p&gt;一、传入参数：无&lt;/p&gt;&lt;p&gt;二、函数返回值：空&lt;/p&gt;&lt;p&gt;三、函数功能：用于判断是否有目标检测需求&lt;/p&gt;" style="text;html=1;strokeColor=none;fillColor=none;spacing=5;spacingTop=-20;whiteSpace=wrap;overflow=hidden;rounded=0;" vertex="1" parent="1">
          <mxGeometry x="1310" y="1304" width="190" height="140" as="geometry" />
        </mxCell>
        <mxCell id="EDx30e67icJrGy1P892V-70" style="edgeStyle=none;rounded=0;orthogonalLoop=1;jettySize=auto;html=1;exitX=0.5;exitY=1;exitDx=0;exitDy=0;entryX=0.5;entryY=0;entryDx=0;entryDy=0;" edge="1" parent="1" source="EDx30e67icJrGy1P892V-66" target="EDx30e67icJrGy1P892V-67">
          <mxGeometry relative="1" as="geometry" />
        </mxCell>
        <mxCell id="EDx30e67icJrGy1P892V-66" value="建立互斥锁connect_mutex_" style="rounded=0;whiteSpace=wrap;html=1;" vertex="1" parent="1">
          <mxGeometry x="1130" y="1484" width="120" height="60" as="geometry" />
        </mxCell>
        <mxCell id="EDx30e67icJrGy1P892V-71" style="edgeStyle=none;rounded=0;orthogonalLoop=1;jettySize=auto;html=1;exitX=0.5;exitY=1;exitDx=0;exitDy=0;entryX=0.5;entryY=0;entryDx=0;entryDy=0;" edge="1" parent="1" source="EDx30e67icJrGy1P892V-67" target="EDx30e67icJrGy1P892V-68">
          <mxGeometry relative="1" as="geometry" />
        </mxCell>
        <mxCell id="EDx30e67icJrGy1P892V-67" value="判断检测坐标的订阅者&amp;amp;&amp;amp;检测图像的订阅者是否为0" style="rounded=0;whiteSpace=wrap;html=1;" vertex="1" parent="1">
          <mxGeometry x="1130" y="1584" width="120" height="60" as="geometry" />
        </mxCell>
        <mxCell id="EDx30e67icJrGy1P892V-72" style="edgeStyle=none;rounded=0;orthogonalLoop=1;jettySize=auto;html=1;exitX=0.5;exitY=1;exitDx=0;exitDy=0;" edge="1" parent="1" source="EDx30e67icJrGy1P892V-68" target="EDx30e67icJrGy1P892V-69">
          <mxGeometry relative="1" as="geometry" />
        </mxCell>
        <mxCell id="EDx30e67icJrGy1P892V-75" style="edgeStyle=none;rounded=0;orthogonalLoop=1;jettySize=auto;html=1;exitX=1;exitY=0.5;exitDx=0;exitDy=0;entryX=0;entryY=0.5;entryDx=0;entryDy=0;" edge="1" parent="1" source="EDx30e67icJrGy1P892V-68" target="EDx30e67icJrGy1P892V-74">
          <mxGeometry relative="1" as="geometry" />
        </mxCell>
        <mxCell id="EDx30e67icJrGy1P892V-68" value="是/否" style="rhombus;whiteSpace=wrap;html=1;" vertex="1" parent="1">
          <mxGeometry x="1150" y="1684" width="80" height="80" as="geometry" />
        </mxCell>
        <mxCell id="EDx30e67icJrGy1P892V-69" value="两者都为0,说明无目标检测需求，关闭原始图像订阅" style="rounded=0;whiteSpace=wrap;html=1;" vertex="1" parent="1">
          <mxGeometry x="1130" y="1824" width="120" height="60" as="geometry" />
        </mxCell>
        <mxCell id="EDx30e67icJrGy1P892V-73" value="是" style="text;html=1;strokeColor=none;fillColor=none;align=center;verticalAlign=middle;whiteSpace=wrap;rounded=0;" vertex="1" parent="1">
          <mxGeometry x="1130" y="1774" width="60" height="30" as="geometry" />
        </mxCell>
        <mxCell id="EDx30e67icJrGy1P892V-77" style="edgeStyle=none;rounded=0;orthogonalLoop=1;jettySize=auto;html=1;exitX=0.5;exitY=1;exitDx=0;exitDy=0;entryX=0.5;entryY=0;entryDx=0;entryDy=0;" edge="1" parent="1" source="EDx30e67icJrGy1P892V-74" target="EDx30e67icJrGy1P892V-76">
          <mxGeometry relative="1" as="geometry" />
        </mxCell>
        <mxCell id="EDx30e67icJrGy1P892V-74" value="判断是否有原始图像订阅" style="rounded=0;whiteSpace=wrap;html=1;" vertex="1" parent="1">
          <mxGeometry x="1350" y="1694" width="120" height="60" as="geometry" />
        </mxCell>
        <mxCell id="EDx30e67icJrGy1P892V-79" style="edgeStyle=none;rounded=0;orthogonalLoop=1;jettySize=auto;html=1;exitX=0.5;exitY=1;exitDx=0;exitDy=0;entryX=0.5;entryY=0;entryDx=0;entryDy=0;" edge="1" parent="1" source="EDx30e67icJrGy1P892V-76" target="EDx30e67icJrGy1P892V-78">
          <mxGeometry relative="1" as="geometry" />
        </mxCell>
        <mxCell id="EDx30e67icJrGy1P892V-82" style="edgeStyle=none;rounded=0;orthogonalLoop=1;jettySize=auto;html=1;exitX=1;exitY=0.5;exitDx=0;exitDy=0;" edge="1" parent="1" source="EDx30e67icJrGy1P892V-76" target="EDx30e67icJrGy1P892V-81">
          <mxGeometry relative="1" as="geometry" />
        </mxCell>
        <mxCell id="EDx30e67icJrGy1P892V-76" value="是/否" style="rhombus;whiteSpace=wrap;html=1;" vertex="1" parent="1">
          <mxGeometry x="1370" y="1804" width="80" height="80" as="geometry" />
        </mxCell>
        <mxCell id="EDx30e67icJrGy1P892V-78" value="结束函数" style="rounded=0;whiteSpace=wrap;html=1;" vertex="1" parent="1">
          <mxGeometry x="1350" y="1924" width="120" height="60" as="geometry" />
        </mxCell>
        <mxCell id="EDx30e67icJrGy1P892V-80" value="是" style="text;html=1;strokeColor=none;fillColor=none;align=center;verticalAlign=middle;whiteSpace=wrap;rounded=0;" vertex="1" parent="1">
          <mxGeometry x="1350" y="1884" width="60" height="30" as="geometry" />
        </mxCell>
        <mxCell id="EDx30e67icJrGy1P892V-81" value="创建原始图像订阅，绑定回调函数callback" style="rounded=0;whiteSpace=wrap;html=1;" vertex="1" parent="1">
          <mxGeometry x="1510" y="1814" width="120" height="60" as="geometry" />
        </mxCell>
        <mxCell id="EDx30e67icJrGy1P892V-83" value="否" style="text;html=1;strokeColor=none;fillColor=none;align=center;verticalAlign=middle;whiteSpace=wrap;rounded=0;" vertex="1" parent="1">
          <mxGeometry x="1450" y="1809" width="60" height="30" as="geometry" />
        </mxCell>
        <mxCell id="EDx30e67icJrGy1P892V-85" value="" style="shape=flexArrow;endArrow=classic;html=1;rounded=0;entryX=-0.006;entryY=0.44;entryDx=0;entryDy=0;entryPerimeter=0;" edge="1" parent="1">
          <mxGeometry width="50" height="50" relative="1" as="geometry">
            <mxPoint x="630" y="1509.41" as="sourcePoint" />
            <mxPoint x="1066.1599999999999" y="1510.2100000000003" as="targetPoint" />
          </mxGeometry>
        </mxCell>
        <mxCell id="EDx30e67icJrGy1P892V-86" value="&lt;h1&gt;callback函数&lt;/h1&gt;&lt;p&gt;一、函数参数：sensor_msgs::msg::Image::ConstSharePtr in_image_msg&lt;/p&gt;&lt;p&gt;二、函数返回值：void&lt;/p&gt;&lt;p&gt;三、函数功能：当有原始图像订阅时，接受原始图像数据，并进行推理，发布检测结果（坐标、图像）&lt;/p&gt;" style="text;html=1;strokeColor=none;fillColor=none;spacing=5;spacingTop=-20;whiteSpace=wrap;overflow=hidden;rounded=0;" vertex="1" parent="1">
          <mxGeometry x="2020" y="580" width="260" height="200" as="geometry" />
        </mxCell>
        <mxCell id="EDx30e67icJrGy1P892V-87" value="&lt;h1&gt;tier4_perception_msgs::msg::DetectedObjectsWithFeature&lt;/h1&gt;&lt;p&gt;std_msgs/Header header&lt;/p&gt;&lt;p&gt;DetectedObjectWithFeature[] feature_objects&lt;/p&gt;" style="text;html=1;strokeColor=none;fillColor=none;spacing=5;spacingTop=-20;whiteSpace=wrap;overflow=hidden;rounded=0;" vertex="1" parent="1">
          <mxGeometry x="2510" y="150" width="700" height="120" as="geometry" />
        </mxCell>
        <mxCell id="EDx30e67icJrGy1P892V-88" value="&lt;h1&gt;tier4_perception_msgs::msg::DetectedObjectWithFeature&lt;/h1&gt;&lt;p&gt;autoware_auto_perception_msgs/DetectedObject object&lt;/p&gt;&lt;p&gt;Feature feature&lt;/p&gt;" style="text;html=1;strokeColor=none;fillColor=none;spacing=5;spacingTop=-20;whiteSpace=wrap;overflow=hidden;rounded=0;" vertex="1" parent="1">
          <mxGeometry x="2510" y="290" width="700" height="120" as="geometry" />
        </mxCell>
        <mxCell id="EDx30e67icJrGy1P892V-89" value="&lt;h1&gt;Feature.msg&lt;/h1&gt;&lt;p&gt;sensor_msgs/PointCloud2 cluster&lt;/p&gt;&lt;p&gt;sensor_msgs/RegionOfInterest roi&lt;/p&gt;" style="text;html=1;strokeColor=none;fillColor=none;spacing=5;spacingTop=-20;whiteSpace=wrap;overflow=hidden;rounded=0;" vertex="1" parent="1">
          <mxGeometry x="2510" y="410" width="220" height="120" as="geometry" />
        </mxCell>
        <mxCell id="EDx30e67icJrGy1P892V-90" value="&lt;h1&gt;autoware_auto_perception_msgs/DetectedObject&lt;/h1&gt;&lt;p&gt;std_msgs/Header&amp;nbsp; &amp;nbsp; &amp;nbsp; &amp;nbsp; &amp;nbsp; &amp;nbsp; &amp;nbsp; &amp;nbsp; &amp;nbsp;header&lt;/p&gt;&lt;p&gt;&lt;br&gt;&lt;/p&gt;&lt;p&gt;uint32&amp;nbsp; &amp;nbsp; &amp;nbsp; &amp;nbsp; &amp;nbsp; &amp;nbsp; &amp;nbsp; &amp;nbsp; &amp;nbsp; &amp;nbsp; &amp;nbsp; &amp;nbsp; &amp;nbsp; id&lt;/p&gt;&lt;p&gt;string&amp;nbsp; &amp;nbsp; &amp;nbsp; &amp;nbsp; &amp;nbsp; &amp;nbsp; &amp;nbsp; &amp;nbsp; &amp;nbsp; &amp;nbsp; &amp;nbsp; &amp;nbsp; &amp;nbsp; label&lt;/p&gt;&lt;p&gt;float32&amp;nbsp; &amp;nbsp; &amp;nbsp; &amp;nbsp; &amp;nbsp; &amp;nbsp; &amp;nbsp; &amp;nbsp; &amp;nbsp; &amp;nbsp; &amp;nbsp; &amp;nbsp; &amp;nbsp;score&amp;nbsp; &amp;nbsp;#Score as defined by the detection, Optional&lt;/p&gt;&lt;p&gt;std_msgs/ColorRGBA&amp;nbsp; &amp;nbsp; &amp;nbsp; &amp;nbsp; &amp;nbsp; &amp;nbsp; &amp;nbsp; color&amp;nbsp; &amp;nbsp;# Define this object specific color&lt;/p&gt;&lt;p&gt;bool&amp;nbsp; &amp;nbsp; &amp;nbsp; &amp;nbsp; &amp;nbsp; &amp;nbsp; &amp;nbsp; &amp;nbsp; &amp;nbsp; &amp;nbsp; &amp;nbsp; &amp;nbsp; &amp;nbsp; &amp;nbsp; valid&amp;nbsp; &amp;nbsp;# Defines if this object is valid, or invalid as defined by the filtering&lt;/p&gt;&lt;p&gt;&lt;br&gt;&lt;/p&gt;&lt;p&gt;################ 3D BB&lt;/p&gt;&lt;p&gt;string&amp;nbsp; &amp;nbsp; &amp;nbsp; &amp;nbsp; &amp;nbsp; &amp;nbsp; &amp;nbsp; &amp;nbsp; &amp;nbsp; &amp;nbsp; &amp;nbsp; &amp;nbsp; &amp;nbsp; space_frame #3D Space coordinate frame of the object, required if pose and dimensions are defines&lt;/p&gt;&lt;p&gt;geometry_msgs/Pose&amp;nbsp; &amp;nbsp; &amp;nbsp; &amp;nbsp; &amp;nbsp; &amp;nbsp; &amp;nbsp; pose&lt;/p&gt;&lt;p&gt;geometry_msgs/Vector3&amp;nbsp; &amp;nbsp; &amp;nbsp; &amp;nbsp; &amp;nbsp; &amp;nbsp;dimensions&lt;/p&gt;&lt;p&gt;geometry_msgs/Vector3&amp;nbsp; &amp;nbsp; &amp;nbsp; &amp;nbsp; &amp;nbsp; &amp;nbsp;variance&lt;/p&gt;&lt;p&gt;geometry_msgs/Twist&amp;nbsp; &amp;nbsp; &amp;nbsp; &amp;nbsp; &amp;nbsp; &amp;nbsp; &amp;nbsp;velocity&lt;/p&gt;&lt;p&gt;geometry_msgs/Twist&amp;nbsp; &amp;nbsp; &amp;nbsp; &amp;nbsp; &amp;nbsp; &amp;nbsp; &amp;nbsp;acceleration&lt;/p&gt;&lt;p&gt;&lt;br&gt;&lt;/p&gt;&lt;p&gt;sensor_msgs/PointCloud2&amp;nbsp; &amp;nbsp; &amp;nbsp; &amp;nbsp; &amp;nbsp;pointcloud&lt;/p&gt;&lt;p&gt;&lt;br&gt;&lt;/p&gt;&lt;p&gt;geometry_msgs/PolygonStamped&amp;nbsp; &amp;nbsp; convex_hull&lt;/p&gt;&lt;p&gt;autoware_msgs/LaneArray&amp;nbsp; &amp;nbsp; &amp;nbsp; &amp;nbsp; &amp;nbsp;candidate_trajectories&lt;/p&gt;&lt;p&gt;&lt;br&gt;&lt;/p&gt;&lt;p&gt;bool&amp;nbsp; &amp;nbsp; &amp;nbsp; &amp;nbsp; &amp;nbsp; &amp;nbsp; &amp;nbsp; &amp;nbsp; &amp;nbsp; &amp;nbsp; &amp;nbsp; &amp;nbsp; &amp;nbsp; &amp;nbsp; pose_reliable&lt;/p&gt;&lt;p&gt;bool&amp;nbsp; &amp;nbsp; &amp;nbsp; &amp;nbsp; &amp;nbsp; &amp;nbsp; &amp;nbsp; &amp;nbsp; &amp;nbsp; &amp;nbsp; &amp;nbsp; &amp;nbsp; &amp;nbsp; &amp;nbsp; velocity_reliable&lt;/p&gt;&lt;p&gt;bool&amp;nbsp; &amp;nbsp; &amp;nbsp; &amp;nbsp; &amp;nbsp; &amp;nbsp; &amp;nbsp; &amp;nbsp; &amp;nbsp; &amp;nbsp; &amp;nbsp; &amp;nbsp; &amp;nbsp; &amp;nbsp; acceleration_reliable&lt;/p&gt;&lt;p&gt;&lt;br&gt;&lt;/p&gt;&lt;p&gt;############### 2D Rect&lt;/p&gt;&lt;p&gt;string&amp;nbsp; &amp;nbsp; &amp;nbsp; &amp;nbsp; &amp;nbsp; &amp;nbsp; &amp;nbsp; &amp;nbsp; &amp;nbsp; &amp;nbsp; &amp;nbsp; &amp;nbsp; &amp;nbsp; image_frame # Image coordinate Frame,&amp;nbsp; &amp;nbsp; &amp;nbsp; &amp;nbsp; Required if x,y,w,h defined&lt;/p&gt;&lt;p&gt;int32&amp;nbsp; &amp;nbsp; &amp;nbsp; &amp;nbsp; &amp;nbsp; &amp;nbsp; &amp;nbsp; &amp;nbsp; &amp;nbsp; &amp;nbsp; &amp;nbsp; &amp;nbsp; &amp;nbsp; &amp;nbsp;x&amp;nbsp; &amp;nbsp; &amp;nbsp; &amp;nbsp; &amp;nbsp; &amp;nbsp;# X coord in image space(pixel) of the initial point of the Rect&lt;/p&gt;&lt;p&gt;int32&amp;nbsp; &amp;nbsp; &amp;nbsp; &amp;nbsp; &amp;nbsp; &amp;nbsp; &amp;nbsp; &amp;nbsp; &amp;nbsp; &amp;nbsp; &amp;nbsp; &amp;nbsp; &amp;nbsp; &amp;nbsp;y&amp;nbsp; &amp;nbsp; &amp;nbsp; &amp;nbsp; &amp;nbsp; &amp;nbsp;# Y coord in image space(pixel) of the initial point of the Rect&lt;/p&gt;&lt;p&gt;int32&amp;nbsp; &amp;nbsp; &amp;nbsp; &amp;nbsp; &amp;nbsp; &amp;nbsp; &amp;nbsp; &amp;nbsp; &amp;nbsp; &amp;nbsp; &amp;nbsp; &amp;nbsp; &amp;nbsp; &amp;nbsp;width&amp;nbsp; &amp;nbsp; &amp;nbsp; &amp;nbsp;# Width of the Rect in pixels&lt;/p&gt;&lt;p&gt;int32&amp;nbsp; &amp;nbsp; &amp;nbsp; &amp;nbsp; &amp;nbsp; &amp;nbsp; &amp;nbsp; &amp;nbsp; &amp;nbsp; &amp;nbsp; &amp;nbsp; &amp;nbsp; &amp;nbsp; &amp;nbsp;height&amp;nbsp; &amp;nbsp; &amp;nbsp; # Height of the Rect in pixels&lt;/p&gt;&lt;p&gt;float32&amp;nbsp; &amp;nbsp; &amp;nbsp; &amp;nbsp; &amp;nbsp; &amp;nbsp; &amp;nbsp; &amp;nbsp; &amp;nbsp; &amp;nbsp; &amp;nbsp; &amp;nbsp; &amp;nbsp;angle&amp;nbsp; &amp;nbsp; &amp;nbsp; &amp;nbsp;# Angle [0 to 2*PI), allow rotated rects&lt;/p&gt;&lt;p&gt;&lt;br&gt;&lt;/p&gt;&lt;p&gt;sensor_msgs/Image&amp;nbsp; &amp;nbsp; &amp;nbsp; &amp;nbsp; &amp;nbsp; &amp;nbsp; &amp;nbsp; &amp;nbsp;roi_image&lt;/p&gt;&lt;p&gt;&lt;br&gt;&lt;/p&gt;&lt;p&gt;############### Indicator information&lt;/p&gt;&lt;p&gt;uint8&amp;nbsp; &amp;nbsp; &amp;nbsp; &amp;nbsp; &amp;nbsp; &amp;nbsp; &amp;nbsp; &amp;nbsp; &amp;nbsp; &amp;nbsp; &amp;nbsp; &amp;nbsp; &amp;nbsp; indicator_state # INDICATOR_LEFT = 0, INDICATOR_RIGHT = 1, INDICATOR_BOTH = 2, INDICATOR_NONE = 3&lt;/p&gt;&lt;p&gt;&lt;br&gt;&lt;/p&gt;&lt;p&gt;############### Behavior State of the Detected Object&lt;/p&gt;&lt;p&gt;uint8&amp;nbsp; &amp;nbsp; &amp;nbsp; &amp;nbsp; &amp;nbsp; &amp;nbsp; &amp;nbsp; &amp;nbsp; &amp;nbsp; &amp;nbsp; &amp;nbsp; &amp;nbsp; &amp;nbsp; &amp;nbsp;behavior_state # FORWARD_STATE = 0, STOPPING_STATE = 1, BRANCH_LEFT_STATE = 2, BRANCH_RIGHT_STATE = 3, YIELDING_STATE = 4, ACCELERATING_STATE = 5, SLOWDOWN_STATE = 6&lt;/p&gt;&lt;p&gt;&lt;br&gt;&lt;/p&gt;&lt;p&gt;#&lt;/p&gt;&lt;p&gt;string[]&amp;nbsp; &amp;nbsp; &amp;nbsp; &amp;nbsp; &amp;nbsp; &amp;nbsp; &amp;nbsp; &amp;nbsp; &amp;nbsp; &amp;nbsp; &amp;nbsp; &amp;nbsp; user_defined_info&lt;/p&gt;" style="text;html=1;strokeColor=none;fillColor=none;spacing=5;spacingTop=-20;whiteSpace=wrap;overflow=hidden;rounded=0;" vertex="1" parent="1">
          <mxGeometry x="2510" y="530" width="690" height="1250" as="geometry" />
        </mxCell>
        <mxCell id="EDx30e67icJrGy1P892V-94" style="edgeStyle=none;rounded=0;orthogonalLoop=1;jettySize=auto;html=1;exitX=0.5;exitY=1;exitDx=0;exitDy=0;entryX=0.5;entryY=0;entryDx=0;entryDy=0;" edge="1" parent="1" source="EDx30e67icJrGy1P892V-91" target="EDx30e67icJrGy1P892V-93">
          <mxGeometry relative="1" as="geometry" />
        </mxCell>
        <mxCell id="EDx30e67icJrGy1P892V-91" value="设置cuda_device_id" style="rounded=0;whiteSpace=wrap;html=1;" vertex="1" parent="1">
          <mxGeometry x="2050" y="820" width="120" height="60" as="geometry" />
        </mxCell>
        <mxCell id="EDx30e67icJrGy1P892V-104" style="edgeStyle=none;rounded=0;orthogonalLoop=1;jettySize=auto;html=1;exitX=0.5;exitY=1;exitDx=0;exitDy=0;entryX=0.5;entryY=0;entryDx=0;entryDy=0;" edge="1" parent="1" source="EDx30e67icJrGy1P892V-92" target="EDx30e67icJrGy1P892V-100">
          <mxGeometry relative="1" as="geometry" />
        </mxCell>
        <mxCell id="EDx30e67icJrGy1P892V-92" value="使用cv_bridge将sensor_msgs::msg::image转换成opencv" style="rounded=0;whiteSpace=wrap;html=1;" vertex="1" parent="1">
          <mxGeometry x="2035" y="1040" width="150" height="60" as="geometry" />
        </mxCell>
        <mxCell id="EDx30e67icJrGy1P892V-95" style="edgeStyle=none;rounded=0;orthogonalLoop=1;jettySize=auto;html=1;exitX=0.5;exitY=1;exitDx=0;exitDy=0;entryX=0.5;entryY=0;entryDx=0;entryDy=0;" edge="1" parent="1" source="EDx30e67icJrGy1P892V-93" target="EDx30e67icJrGy1P892V-92">
          <mxGeometry relative="1" as="geometry" />
        </mxCell>
        <mxCell id="EDx30e67icJrGy1P892V-98" style="edgeStyle=none;rounded=0;orthogonalLoop=1;jettySize=auto;html=1;exitX=1;exitY=0.5;exitDx=0;exitDy=0;" edge="1" parent="1" source="EDx30e67icJrGy1P892V-93" target="EDx30e67icJrGy1P892V-97">
          <mxGeometry relative="1" as="geometry" />
        </mxCell>
        <mxCell id="EDx30e67icJrGy1P892V-93" value="成功/失败" style="rhombus;whiteSpace=wrap;html=1;" vertex="1" parent="1">
          <mxGeometry x="2070" y="920" width="80" height="80" as="geometry" />
        </mxCell>
        <mxCell id="EDx30e67icJrGy1P892V-96" value="成功" style="text;html=1;strokeColor=none;fillColor=none;align=center;verticalAlign=middle;whiteSpace=wrap;rounded=0;" vertex="1" parent="1">
          <mxGeometry x="2060" y="1000" width="60" height="30" as="geometry" />
        </mxCell>
        <mxCell id="EDx30e67icJrGy1P892V-97" value="报错信息，并退出函数" style="rounded=0;whiteSpace=wrap;html=1;" vertex="1" parent="1">
          <mxGeometry x="2240" y="930" width="120" height="60" as="geometry" />
        </mxCell>
        <mxCell id="EDx30e67icJrGy1P892V-99" value="失败" style="text;html=1;strokeColor=none;fillColor=none;align=center;verticalAlign=middle;whiteSpace=wrap;rounded=0;" vertex="1" parent="1">
          <mxGeometry x="2170" y="930" width="60" height="30" as="geometry" />
        </mxCell>
        <mxCell id="EDx30e67icJrGy1P892V-102" style="edgeStyle=none;rounded=0;orthogonalLoop=1;jettySize=auto;html=1;exitX=1;exitY=0.5;exitDx=0;exitDy=0;entryX=0;entryY=0.5;entryDx=0;entryDy=0;" edge="1" parent="1" source="EDx30e67icJrGy1P892V-100" target="EDx30e67icJrGy1P892V-101">
          <mxGeometry relative="1" as="geometry" />
        </mxCell>
        <mxCell id="EDx30e67icJrGy1P892V-106" style="edgeStyle=none;rounded=0;orthogonalLoop=1;jettySize=auto;html=1;exitX=0.5;exitY=1;exitDx=0;exitDy=0;entryX=0.5;entryY=0;entryDx=0;entryDy=0;" edge="1" parent="1" source="EDx30e67icJrGy1P892V-100" target="EDx30e67icJrGy1P892V-105">
          <mxGeometry relative="1" as="geometry" />
        </mxCell>
        <mxCell id="EDx30e67icJrGy1P892V-100" value="成功/失败" style="rhombus;whiteSpace=wrap;html=1;" vertex="1" parent="1">
          <mxGeometry x="2070" y="1160" width="80" height="80" as="geometry" />
        </mxCell>
        <mxCell id="EDx30e67icJrGy1P892V-101" value="捕获异常，报错信息，退出函数" style="rounded=0;whiteSpace=wrap;html=1;" vertex="1" parent="1">
          <mxGeometry x="2240" y="1170" width="120" height="60" as="geometry" />
        </mxCell>
        <mxCell id="EDx30e67icJrGy1P892V-103" value="失败" style="text;html=1;strokeColor=none;fillColor=none;align=center;verticalAlign=middle;whiteSpace=wrap;rounded=0;" vertex="1" parent="1">
          <mxGeometry x="2160" y="1170" width="60" height="30" as="geometry" />
        </mxCell>
        <mxCell id="EDx30e67icJrGy1P892V-109" style="edgeStyle=none;rounded=0;orthogonalLoop=1;jettySize=auto;html=1;exitX=0.5;exitY=1;exitDx=0;exitDy=0;entryX=0.5;entryY=0;entryDx=0;entryDy=0;" edge="1" parent="1" source="EDx30e67icJrGy1P892V-105" target="EDx30e67icJrGy1P892V-108">
          <mxGeometry relative="1" as="geometry" />
        </mxCell>
        <mxCell id="EDx30e67icJrGy1P892V-105" value="推理图像" style="rounded=0;whiteSpace=wrap;html=1;" vertex="1" parent="1">
          <mxGeometry x="2050" y="1304" width="120" height="60" as="geometry" />
        </mxCell>
        <mxCell id="EDx30e67icJrGy1P892V-107" value="成功" style="text;html=1;strokeColor=none;fillColor=none;align=center;verticalAlign=middle;whiteSpace=wrap;rounded=0;" vertex="1" parent="1">
          <mxGeometry x="2050" y="1250" width="60" height="30" as="geometry" />
        </mxCell>
        <mxCell id="EDx30e67icJrGy1P892V-111" style="edgeStyle=none;rounded=0;orthogonalLoop=1;jettySize=auto;html=1;exitX=1;exitY=0.5;exitDx=0;exitDy=0;entryX=0;entryY=0.5;entryDx=0;entryDy=0;" edge="1" parent="1" source="EDx30e67icJrGy1P892V-108" target="EDx30e67icJrGy1P892V-110">
          <mxGeometry relative="1" as="geometry" />
        </mxCell>
        <mxCell id="EDx30e67icJrGy1P892V-108" value="成功/失败" style="rhombus;whiteSpace=wrap;html=1;" vertex="1" parent="1">
          <mxGeometry x="2070" y="1410" width="80" height="80" as="geometry" />
        </mxCell>
        <mxCell id="EDx30e67icJrGy1P892V-110" value="报错推理失败，并退出函数" style="rounded=0;whiteSpace=wrap;html=1;" vertex="1" parent="1">
          <mxGeometry x="2240" y="1420" width="120" height="60" as="geometry" />
        </mxCell>
      </root>
    </mxGraphModel>
  </diagram>
</mxfile>
